<?xml version="1.0" encoding="UTF-8" standalone="no"?>
<!DOCTYPE svg PUBLIC "-//W3C//DTD SVG 1.1//EN" "http://www.w3.org/Graphics/SVG/1.1/DTD/svg11.dtd">
<svg width="100%" height="100%" viewBox="0 0 5330 2266" version="1.1" xmlns="http://www.w3.org/2000/svg" xmlns:xlink="http://www.w3.org/1999/xlink" xml:space="preserve" xmlns:serif="http://www.serif.com/" style="fill-rule:evenodd;clip-rule:evenodd;stroke-linejoin:round;stroke-miterlimit:2;">
    <style>
        :root {
            --matrix-text: #000000;
        }
        @media (prefers-color-scheme: dark) {
            :root {
                --matrix-text: #ffffff;
            }
        }
    </style>
    <g transform="matrix(2,0,0,2,0,0)" style="fill:var(--matrix-text);">
        <g transform="matrix(2,0,0,2,-312.859,-233.477)">
            <g id="_-" serif:id="[" transform="matrix(1,0,0,1,156.429,231.357)">
                <path d="M8.876,7.71L8.876,329.096L32.006,329.096L32.006,336.807L0,336.807L0,0L32.006,0L32.006,7.71L8.876,7.71Z" style="fill-rule:nonzero;"/>
            </g>
            <g id="matrix">
                <g id="m" transform="matrix(1,0,0,1,156.429,231.357)">
                    <path d="M97.989,109.594L97.989,125.858L98.452,125.858C102.79,119.667 108.015,114.86 114.136,111.452C120.253,108.05 127.265,106.342 135.163,106.342C142.751,106.342 149.684,107.817 155.956,110.757C162.23,113.702 166.994,118.888 170.247,126.324C173.807,121.059 178.647,116.411 184.768,112.384C190.885,108.359 198.126,106.342 206.492,106.342C212.843,106.342 218.726,107.118 224.152,108.667C229.57,110.216 234.217,112.694 238.09,116.101C241.959,119.511 244.979,123.964 247.152,129.458C249.319,134.962 250.405,141.58 250.405,149.327L250.405,229.712L217.412,229.712L217.412,161.638C217.412,157.613 217.258,153.818 216.947,150.253C216.634,146.693 215.786,143.597 214.392,140.96C212.997,138.329 210.942,136.236 208.235,134.686C205.524,133.143 201.844,132.364 197.198,132.364C192.552,132.364 188.795,133.26 185.929,135.035C183.061,136.819 180.817,139.144 179.192,142.006C177.566,144.875 176.481,148.126 175.94,151.768C175.395,155.406 175.126,159.086 175.126,162.803L175.126,229.713L142.135,229.713L142.135,162.338C142.135,158.776 142.054,155.251 141.905,151.768C141.747,148.281 141.091,145.068 139.927,142.123C138.765,139.183 136.828,136.819 134.118,135.035C131.407,133.26 127.419,132.364 122.153,132.364C120.602,132.364 118.55,132.713 115.997,133.412C113.441,134.109 110.961,135.428 108.562,137.361C106.158,139.299 104.108,142.087 102.404,145.724C100.699,149.366 99.848,154.126 99.848,160.011L99.848,229.712L66.858,229.712L66.858,109.594L97.989,109.594Z" style="fill-rule:nonzero;"/>
                </g>
                <g id="a" transform="matrix(1,0,0,1,156.429,231.357)">
                    <path d="M271.545,127.254C274.95,122.141 279.289,118.039 284.557,114.938C289.821,111.841 295.743,109.635 302.328,108.317C308.91,107.002 315.533,106.341 322.193,106.341C328.235,106.341 334.351,106.769 340.547,107.618C346.742,108.473 352.397,110.14 357.509,112.615C362.62,115.092 366.801,118.541 370.055,122.953C373.308,127.367 374.934,133.215 374.934,140.496L374.934,202.99C374.934,208.418 375.244,213.601 375.865,218.557C376.48,223.516 377.566,227.233 379.116,229.71L345.661,229.71C345.04,227.85 344.535,225.955 344.15,224.017C343.76,222.084 343.489,220.109 343.337,218.094C338.07,223.516 331.872,227.311 324.752,229.48C317.625,231.643 310.345,232.731 302.91,232.731C297.177,232.731 291.833,232.033 286.877,230.641C281.919,229.246 277.584,227.079 273.867,224.131C270.149,221.193 267.245,217.475 265.154,212.984C263.063,208.493 262.016,203.144 262.016,196.951C262.016,190.138 263.215,184.521 265.62,180.111C268.019,175.694 271.115,172.172 274.915,169.536C278.708,166.904 283.044,164.929 287.925,163.613C292.803,162.298 297.72,161.255 302.677,160.476C307.634,159.704 312.512,159.083 317.315,158.619C322.116,158.153 326.377,157.455 330.094,156.526C333.812,155.597 336.752,154.244 338.923,152.461C341.088,150.68 342.095,148.086 341.943,144.676C341.943,141.116 341.363,138.287 340.201,136.197C339.04,134.107 337.49,132.478 335.555,131.317C333.618,130.156 331.372,129.381 328.818,128.992C326.261,128.61 323.509,128.412 320.57,128.412C314.064,128.412 308.953,129.807 305.235,132.595C301.519,135.383 299.346,140.032 298.729,146.535L265.738,146.535C266.2,138.793 268.133,132.362 271.545,127.254ZM336.714,173.837C334.624,174.533 332.377,175.112 329.978,175.578C327.576,176.043 325.06,176.431 322.427,176.739C319.792,177.052 317.159,177.437 314.528,177.902C312.048,178.363 309.609,178.988 307.211,179.759C304.807,180.538 302.716,181.581 300.937,182.897C299.153,184.214 297.721,185.882 296.637,187.891C295.552,189.905 295.011,192.462 295.011,195.559C295.011,198.499 295.552,200.981 296.637,202.99C297.721,205.007 299.195,206.594 301.053,207.755C302.911,208.916 305.078,209.731 307.56,210.193C310.035,210.659 312.591,210.891 315.225,210.891C321.73,210.891 326.762,209.809 330.328,207.638C333.889,205.472 336.52,202.876 338.227,199.853C339.929,196.834 340.976,193.781 341.364,190.679C341.748,187.582 341.944,185.103 341.944,183.245L341.944,170.93C340.548,172.172 338.806,173.139 336.714,173.837Z" style="fill-rule:nonzero;"/>
                </g>
                <g id="t" transform="matrix(1,0,0,1,156.429,231.357)">
                    <path d="M461.826,109.594L461.826,131.666L437.665,131.666L437.665,191.145C437.665,196.718 438.593,200.437 440.453,202.294C442.309,204.153 446.029,205.082 451.605,205.082C453.464,205.082 455.243,205.006 456.948,204.85C458.651,204.698 460.278,204.462 461.826,204.154L461.826,229.711C459.038,230.176 455.939,230.484 452.533,230.642C449.126,230.791 445.796,230.872 442.543,230.872C437.432,230.872 432.59,230.522 428.022,229.824C423.451,229.129 419.425,227.777 415.941,225.761C412.455,223.75 409.705,220.881 407.693,217.164C405.677,213.45 404.672,208.569 404.672,202.525L404.672,131.666L384.692,131.666L384.692,109.594L404.672,109.594L404.672,73.582L437.664,73.582L437.664,109.594L461.826,109.594Z" style="fill-rule:nonzero;"/>
                </g>
                <g id="r" transform="matrix(1,0,0,1,156.429,231.357)">
                    <path d="M508.989,109.594L508.989,131.9L509.454,131.9C511,128.18 513.09,124.737 515.726,121.559C518.36,118.387 521.378,115.674 524.786,113.428C528.191,111.186 531.833,109.443 535.709,108.2C539.577,106.963 543.607,106.341 547.79,106.341C549.958,106.341 552.356,106.731 554.992,107.504L554.992,138.174C553.441,137.862 551.582,137.59 549.416,137.36C547.246,137.127 545.156,137.01 543.142,137.01C537.101,137.01 531.99,138.02 527.81,140.031C523.628,142.045 520.26,144.792 517.703,148.278C515.148,151.765 513.324,155.828 512.241,160.476C511.158,165.121 510.616,170.158 510.616,175.578L510.616,229.711L477.625,229.711L477.625,109.594L508.989,109.594Z" style="fill-rule:nonzero;"/>
                </g>
                <g id="i" transform="matrix(1,0,0,1,156.429,231.357)">
                    <path d="M568.931,91.006L568.931,63.823L601.925,63.823L601.925,91.006L568.931,91.006ZM601.925,109.594L601.925,229.711L568.931,229.711L568.931,109.594L601.925,109.594Z" style="fill-rule:nonzero;"/>
                </g>
                <g id="x" transform="matrix(1,0,0,1,156.429,231.357)">
                    <path d="M619.116,109.594L656.753,109.594L677.897,140.959L698.808,109.594L735.284,109.594L695.788,165.82L740.165,229.712L702.525,229.712L677.432,191.842L652.338,229.712L615.4,229.712L658.613,166.519L619.116,109.594Z" style="fill-rule:nonzero;"/>
                </g>
            </g>
            <g id="_-1" serif:id="]" transform="matrix(1,0,0,1,699.257,231.849)">
                <path d="M780.444,329.096L780.444,7.71L757.314,7.71L757.314,0L789.322,0L789.322,336.807L757.314,336.807L757.314,329.096L780.444,329.096Z" style="fill-rule:nonzero;"/>
            </g>
            <g id="Bottom" transform="matrix(41.0337,0,0,41.0337,850.08,71.282)">
                <path d="M11.376,11.502C11.625,11.272 11.85,11.017 12.046,10.742L12.042,10.725L11.748,10.725C11.548,10.725 11.348,10.726 11.148,10.723C11.085,10.72 11.023,10.745 10.98,10.792C10.03,11.72 8.894,12.12 7.575,11.992C7.089,11.942 6.617,11.802 6.183,11.578C5.773,11.372 5.4,11.098 5.08,10.769C5.054,10.739 5.016,10.722 4.976,10.724L4.36,10.725L4.093,10.725C4.072,10.725 4.05,10.727 4.029,10.73C4.259,11.053 4.526,11.347 4.826,11.607C4.823,11.613 4.82,11.619 4.816,11.625L4.791,11.648L4.777,11.662C4.459,11.959 4.207,12.319 4.035,12.719C3.977,12.846 3.936,12.981 3.914,13.119C3.894,13.217 3.901,13.319 3.934,13.413C3.959,13.478 4.016,13.525 4.084,13.538C4.146,13.548 4.209,13.542 4.267,13.518C4.39,13.474 4.504,13.409 4.604,13.324C4.98,13.011 5.277,12.614 5.469,12.164L5.489,12.12L5.5,12.096C6.187,12.51 6.966,12.751 7.767,12.796L7.77,12.806C7.772,12.811 7.773,12.814 7.772,12.816C7.72,13.006 7.69,13.201 7.681,13.398C7.665,13.646 7.678,13.895 7.719,14.139C7.751,14.319 7.795,14.495 7.881,14.656C7.911,14.713 7.948,14.766 7.991,14.814C8.099,14.932 8.232,14.931 8.344,14.816C8.37,14.791 8.391,14.763 8.409,14.732C8.453,14.653 8.492,14.572 8.526,14.488C8.596,14.285 8.638,14.073 8.65,13.858C8.681,13.502 8.65,13.144 8.558,12.799L8.554,12.777C8.822,12.747 9.087,12.697 9.347,12.627C9.602,12.555 9.852,12.464 10.094,12.354C10.337,12.241 10.571,12.11 10.794,11.962L10.803,11.984L10.814,12.014C10.998,12.526 11.317,12.978 11.737,13.322C11.817,13.386 11.902,13.44 11.994,13.485C12.054,13.514 12.117,13.533 12.184,13.541C12.284,13.558 12.382,13.498 12.412,13.401C12.423,13.367 12.43,13.332 12.432,13.297C12.44,13.16 12.42,13.022 12.371,12.894C12.187,12.366 11.861,11.9 11.428,11.546L11.376,11.502Z" style="fill:rgb(15,22,137);fill-rule:nonzero;"/>
            </g>
            <g transform="matrix(1.61666,0,0,1.61666,913.842,33.6133)">
                <g id="HELM">
                    <path d="M11.679,189L31.464,189L31.464,215.789L55.368,215.789L55.368,189L75.154,189L75.154,264.25L55.368,264.25L55.368,235.555L31.464,235.555L31.464,264.25L11.679,264.25L11.679,189ZM97.852,264.25L97.852,189L144.655,189L144.655,205.354L117.638,205.354L117.638,217.595L141.542,217.595L141.542,234.25L117.638,234.25L117.638,248.096L144.655,248.096L144.655,264.25L97.852,264.25ZM166.35,264.25L166.35,189L186.135,189L186.135,244.384L213.253,244.384L213.253,264.25L166.35,264.25ZM243.886,189L274.619,216.893L305.252,189L314.191,189L314.191,264.25L294.305,264.25L294.305,225.622L274.619,243.581L254.833,225.722L254.833,264.25L234.947,264.25L234.947,189L243.886,189Z" style="fill:rgb(15,22,137);"/>
                </g>
            </g>
            <g id="Top" transform="matrix(41.0337,0,0,41.0337,850.08,71.282)">
                <path d="M4.807,4.377L4.823,4.392L4.676,4.539C4.569,4.645 4.465,4.753 4.362,4.863C4.165,5.076 3.99,5.315 3.973,5.383L4.883,5.383C4.925,5.385 4.966,5.367 4.992,5.334C5.711,4.543 6.711,4.064 7.778,4C9.028,3.92 10.249,4.412 11.095,5.336C11.116,5.365 11.149,5.382 11.184,5.383L11.779,5.382L12.074,5.382C12.09,5.38 12.106,5.377 12.121,5.373C11.907,5.057 11.657,4.768 11.376,4.509L11.389,4.496C11.677,4.268 11.921,3.989 12.109,3.673C12.244,3.46 12.346,3.227 12.409,2.983C12.433,2.888 12.441,2.79 12.431,2.693C12.418,2.561 12.345,2.45 12.169,2.471C12.134,2.475 12.099,2.483 12.066,2.494C11.945,2.538 11.833,2.603 11.736,2.687C11.317,3.033 10.999,3.486 10.814,3.997L10.8,4.027L10.794,4.038C10.74,4.008 10.686,3.976 10.634,3.945C10.512,3.875 10.394,3.805 10.27,3.743C10.09,3.653 9.906,3.573 9.717,3.503C9.398,3.389 9.07,3.306 8.735,3.256C8.674,3.246 8.613,3.236 8.552,3.224C8.682,2.74 8.695,2.232 8.59,1.742C8.561,1.599 8.512,1.461 8.443,1.332C8.406,1.255 8.35,1.19 8.28,1.142C8.212,1.096 8.122,1.096 8.055,1.144C8.022,1.166 7.992,1.193 7.966,1.224C7.898,1.308 7.846,1.405 7.813,1.508C7.745,1.705 7.703,1.91 7.688,2.118C7.654,2.478 7.682,2.841 7.771,3.191L7.775,3.214C6.974,3.258 6.195,3.497 5.507,3.91L5.498,3.903C5.495,3.901 5.493,3.899 5.491,3.896C5.345,3.541 5.134,3.216 4.871,2.936C4.732,2.775 4.564,2.64 4.377,2.539C4.326,2.512 4.272,2.492 4.217,2.477C4.04,2.434 3.919,2.526 3.907,2.707L3.906,2.73L3.906,2.746C3.899,2.886 3.934,3.018 3.98,3.148C4.146,3.612 4.419,4.004 4.772,4.344L4.807,4.377Z" style="fill:rgb(15,22,137);fill-rule:nonzero;"/>
            </g>
        </g>
    </g>
</svg>
