<?xml version="1.0" encoding="UTF-8" standalone="no"?>
<!DOCTYPE svg PUBLIC "-//W3C//DTD SVG 1.1//EN" "http://www.w3.org/Graphics/SVG/1.1/DTD/svg11.dtd">
<svg width="100%" height="100%" viewBox="0 0 160 160" version="1.1" xmlns="http://www.w3.org/2000/svg" xmlns:xlink="http://www.w3.org/1999/xlink" xml:space="preserve" xmlns:serif="http://www.serif.com/" style="fill-rule:evenodd;clip-rule:evenodd;stroke-linejoin:round;stroke-miterlimit:2;">
    <g transform="matrix(2,0,0,2,0,0)">
        <g transform="matrix(0.0193226,0,0,0.0193226,15,58.0028)">
            <g transform="matrix(1,0,0,1,-260,-260)">
                <path d="M13.7,11.9L13.7,508.1L49.4,508.1L49.4,520L0,520L0,0L49.4,0L49.4,11.9L13.7,11.9Z" style="fill-rule:nonzero;"/>
                <path d="M166.3,169.2L166.3,194.3L167,194.3C173.7,184.7 181.8,177.3 191.2,172.1C200.6,166.8 211.5,164.2 223.7,164.2C235.4,164.2 246.1,166.5 255.8,171C265.5,175.5 272.8,183.6 277.9,195C283.4,186.9 290.9,179.7 300.3,173.5C309.7,167.3 320.9,164.2 333.8,164.2C343.6,164.2 352.7,165.4 361.1,167.8C369.5,170.2 376.6,174 382.6,179.3C388.6,184.6 393.2,191.4 396.6,199.9C399.9,208.4 401.6,218.6 401.6,230.6L401.6,354.7L350.7,354.7L350.7,249.6C350.7,243.4 350.5,237.5 350,232C349.5,226.5 348.2,221.7 346.1,217.7C343.9,213.6 340.8,210.4 336.6,208C332.4,205.6 326.7,204.4 319.6,204.4C312.4,204.4 306.6,205.8 302.2,208.5C297.8,211.3 294.3,214.8 291.8,219.3C289.3,223.7 287.6,228.7 286.8,234.4C286,240 285.5,245.7 285.5,251.4L285.5,354.7L234.6,354.7L234.6,250.7C234.6,245.2 234.5,239.8 234.2,234.4C234,229 232.9,224.1 231.1,219.5C229.3,215 226.3,211.3 222.1,208.6C217.9,205.9 211.8,204.5 203.6,204.5C201.2,204.5 198,205 194.1,206.1C190.2,207.2 186.3,209.2 182.6,212.2C178.9,215.2 175.7,219.5 173.1,225.1C170.5,230.7 169.2,238.1 169.2,247.2L169.2,354.8L118.3,354.8L118.3,169.2L166.3,169.2Z" style="fill-rule:nonzero;"/>
                <path d="M506.3,508.1L506.3,11.9L470.6,11.9L470.6,0L520,0L520,520L470.6,520L470.6,508.1L506.3,508.1Z" style="fill-rule:nonzero;"/>
            </g>
        </g>
        <g transform="matrix(0.0193226,0,0,0.0193226,55.0049,17.9938)">
            <g transform="matrix(1,0,0,1,-260,-260)">
                <path d="M13.7,11.9L13.7,508.1L49.4,508.1L49.4,520L0,520L0,0L49.4,0L49.4,11.9L13.7,11.9Z" style="fill-rule:nonzero;"/>
                <path d="M166.3,169.2L166.3,194.3L167,194.3C173.7,184.7 181.8,177.3 191.2,172.1C200.6,166.8 211.5,164.2 223.7,164.2C235.4,164.2 246.1,166.5 255.8,171C265.5,175.5 272.8,183.6 277.9,195C283.4,186.9 290.9,179.7 300.3,173.5C309.7,167.3 320.9,164.2 333.8,164.2C343.6,164.2 352.7,165.4 361.1,167.8C369.5,170.2 376.6,174 382.6,179.3C388.6,184.6 393.2,191.4 396.6,199.9C399.9,208.4 401.6,218.6 401.6,230.6L401.6,354.7L350.7,354.7L350.7,249.6C350.7,243.4 350.5,237.5 350,232C349.5,226.5 348.2,221.7 346.1,217.7C343.9,213.6 340.8,210.4 336.6,208C332.4,205.6 326.7,204.4 319.6,204.4C312.4,204.4 306.6,205.8 302.2,208.5C297.8,211.3 294.3,214.8 291.8,219.3C289.3,223.7 287.6,228.7 286.8,234.4C286,240 285.5,245.7 285.5,251.4L285.5,354.7L234.6,354.7L234.6,250.7C234.6,245.2 234.5,239.8 234.2,234.4C234,229 232.9,224.1 231.1,219.5C229.3,215 226.3,211.3 222.1,208.6C217.9,205.9 211.8,204.5 203.6,204.5C201.2,204.5 198,205 194.1,206.1C190.2,207.2 186.3,209.2 182.6,212.2C178.9,215.2 175.7,219.5 173.1,225.1C170.5,230.7 169.2,238.1 169.2,247.2L169.2,354.8L118.3,354.8L118.3,169.2L166.3,169.2Z" style="fill-rule:nonzero;"/>
                <path d="M506.3,508.1L506.3,11.9L470.6,11.9L470.6,0L520,0L520,520L470.6,520L470.6,508.1L506.3,508.1Z" style="fill-rule:nonzero;"/>
            </g>
        </g>
        <g id="helm" transform="matrix(0.0605659,0,0,0.0605659,-66.4162,0.138111)">
            <path d="M1275.47,299.776C1272.26,300.92 1267.94,301.62 1263.2,301.62C1253.3,301.62 1245.27,298.573 1245.27,294.814C1245.27,291.055 1253.3,288.008 1263.2,288.008C1267.94,288.008 1272.26,288.708 1275.47,289.851C1276.8,271.176 1285.56,254.543 1298.82,242.905C1295.97,241.039 1292.81,238.018 1289.94,234.229C1283.96,226.336 1281.55,218.098 1284.54,215.83C1287.54,213.561 1294.81,218.12 1300.79,226.012C1303.65,229.798 1305.7,233.664 1306.73,236.912C1316.25,230.709 1327.39,226.791 1339.38,225.938C1338.24,222.732 1337.54,218.417 1337.54,213.671C1337.54,203.771 1340.58,195.746 1344.34,195.746C1348.1,195.746 1351.15,203.771 1351.15,213.671C1351.15,218.417 1350.45,222.732 1349.3,225.938C1361.29,226.791 1372.43,230.709 1381.96,236.912C1382.98,233.664 1385.03,229.798 1387.89,226.012C1393.87,218.12 1401.14,213.561 1404.14,215.83C1407.14,218.098 1404.72,226.336 1398.75,234.229C1395.88,238.018 1392.71,241.039 1389.86,242.905C1403.12,254.543 1411.89,271.176 1413.22,289.851C1416.42,288.708 1420.74,288.008 1425.48,288.008C1435.38,288.008 1443.41,291.055 1443.41,294.814C1443.41,298.573 1435.38,301.62 1425.48,301.62C1420.74,301.62 1416.42,300.92 1413.22,299.776C1411.89,318.452 1403.12,335.084 1389.86,346.723C1392.71,348.588 1395.88,351.609 1398.75,355.399C1404.72,363.292 1407.14,371.529 1404.14,373.798C1401.14,376.067 1393.87,371.508 1387.89,363.615C1385.03,359.829 1382.98,355.964 1381.96,352.716C1372.43,358.919 1361.29,362.836 1349.3,363.689C1350.45,366.896 1351.15,371.211 1351.15,375.957C1351.15,385.856 1348.1,393.882 1344.34,393.882C1340.58,393.882 1337.54,385.856 1337.54,375.957C1337.54,371.211 1338.24,366.896 1339.38,363.689C1327.39,362.836 1316.25,358.919 1306.73,352.716C1305.7,355.964 1303.65,359.829 1300.79,363.615C1294.81,371.508 1287.54,376.067 1284.54,373.798C1281.55,371.529 1283.96,363.292 1289.94,355.399C1292.81,351.609 1295.97,348.588 1298.82,346.723C1285.56,335.084 1276.8,318.452 1275.47,299.776ZM1381.54,339.38C1393.63,329.276 1401.55,314.349 1402.34,297.57L1374.45,297.57C1373.75,305.304 1370.13,312.202 1364.71,317.152L1381.54,339.38ZM1311.54,342.71C1320.16,348.634 1330.47,352.288 1341.59,352.809L1341.59,324.926C1336.76,324.489 1332.27,322.919 1328.36,320.483L1311.54,342.71ZM1402.34,292.058C1401.55,275.279 1393.63,260.352 1381.54,250.248L1364.71,272.475C1370.13,277.426 1373.75,284.324 1374.45,292.058L1402.34,292.058ZM1341.59,236.819C1330.47,237.34 1320.16,240.994 1311.54,246.917L1328.36,269.145C1332.27,266.709 1336.76,265.138 1341.59,264.702L1341.59,236.819ZM1307.14,250.248C1295.06,260.352 1287.13,275.279 1286.35,292.058L1314.23,292.058C1314.93,284.324 1318.55,277.426 1323.97,272.475L1307.14,250.248ZM1377.15,246.917C1368.52,240.994 1358.21,237.34 1347.1,236.819L1347.1,264.702C1351.92,265.138 1356.42,266.709 1360.32,269.145L1377.15,246.917ZM1286.35,297.57C1287.13,314.349 1295.06,329.276 1307.14,339.38L1323.97,317.152C1318.55,312.202 1314.93,305.304 1314.23,297.57L1286.35,297.57ZM1347.1,352.809C1358.21,352.288 1368.52,348.634 1377.15,342.71L1360.32,320.483C1356.42,322.919 1351.92,324.489 1347.1,324.926L1347.1,352.809ZM1344.34,319.539C1357.99,319.539 1369.07,308.46 1369.07,294.814C1369.07,281.168 1357.99,270.089 1344.34,270.089C1330.69,270.089 1319.62,281.168 1319.62,294.814C1319.62,308.46 1330.69,319.539 1344.34,319.539Z"/>
        </g>
        <g id="helm1" serif:id="helm" transform="matrix(0.0605659,0,0,0.0605659,-26.4212,40.1479)">
            <path d="M1275.47,299.776C1272.26,300.92 1267.94,301.62 1263.2,301.62C1253.3,301.62 1245.27,298.573 1245.27,294.814C1245.27,291.055 1253.3,288.008 1263.2,288.008C1267.94,288.008 1272.26,288.708 1275.47,289.851C1276.8,271.176 1285.56,254.543 1298.82,242.905C1295.97,241.039 1292.81,238.018 1289.94,234.229C1283.96,226.336 1281.55,218.098 1284.54,215.83C1287.54,213.561 1294.81,218.12 1300.79,226.012C1303.65,229.798 1305.7,233.664 1306.73,236.912C1316.25,230.709 1327.39,226.791 1339.38,225.938C1338.24,222.732 1337.54,218.417 1337.54,213.671C1337.54,203.771 1340.58,195.746 1344.34,195.746C1348.1,195.746 1351.15,203.771 1351.15,213.671C1351.15,218.417 1350.45,222.732 1349.3,225.938C1361.29,226.791 1372.43,230.709 1381.96,236.912C1382.98,233.664 1385.03,229.798 1387.89,226.012C1393.87,218.12 1401.14,213.561 1404.14,215.83C1407.14,218.098 1404.72,226.336 1398.75,234.229C1395.88,238.018 1392.71,241.039 1389.86,242.905C1403.12,254.543 1411.89,271.176 1413.22,289.851C1416.42,288.708 1420.74,288.008 1425.48,288.008C1435.38,288.008 1443.41,291.055 1443.41,294.814C1443.41,298.573 1435.38,301.62 1425.48,301.62C1420.74,301.62 1416.42,300.92 1413.22,299.776C1411.89,318.452 1403.12,335.084 1389.86,346.723C1392.71,348.588 1395.88,351.609 1398.75,355.399C1404.72,363.292 1407.14,371.529 1404.14,373.798C1401.14,376.067 1393.87,371.508 1387.89,363.615C1385.03,359.829 1382.98,355.964 1381.96,352.716C1372.43,358.919 1361.29,362.836 1349.3,363.689C1350.45,366.896 1351.15,371.211 1351.15,375.957C1351.15,385.856 1348.1,393.882 1344.34,393.882C1340.58,393.882 1337.54,385.856 1337.54,375.957C1337.54,371.211 1338.24,366.896 1339.38,363.689C1327.39,362.836 1316.25,358.919 1306.73,352.716C1305.7,355.964 1303.65,359.829 1300.79,363.615C1294.81,371.508 1287.54,376.067 1284.54,373.798C1281.55,371.529 1283.96,363.292 1289.94,355.399C1292.81,351.609 1295.97,348.588 1298.82,346.723C1285.56,335.084 1276.8,318.452 1275.47,299.776ZM1381.54,339.38C1393.63,329.276 1401.55,314.349 1402.34,297.57L1374.45,297.57C1373.75,305.304 1370.13,312.202 1364.71,317.152L1381.54,339.38ZM1311.54,342.71C1320.16,348.634 1330.47,352.288 1341.59,352.809L1341.59,324.926C1336.76,324.489 1332.27,322.919 1328.36,320.483L1311.54,342.71ZM1402.34,292.058C1401.55,275.279 1393.63,260.352 1381.54,250.248L1364.71,272.475C1370.13,277.426 1373.75,284.324 1374.45,292.058L1402.34,292.058ZM1341.59,236.819C1330.47,237.34 1320.16,240.994 1311.54,246.917L1328.36,269.145C1332.27,266.709 1336.76,265.138 1341.59,264.702L1341.59,236.819ZM1307.14,250.248C1295.06,260.352 1287.13,275.279 1286.35,292.058L1314.23,292.058C1314.93,284.324 1318.55,277.426 1323.97,272.475L1307.14,250.248ZM1377.15,246.917C1368.52,240.994 1358.21,237.34 1347.1,236.819L1347.1,264.702C1351.92,265.138 1356.42,266.709 1360.32,269.145L1377.15,246.917ZM1286.35,297.57C1287.13,314.349 1295.06,329.276 1307.14,339.38L1323.97,317.152C1318.55,312.202 1314.93,305.304 1314.23,297.57L1286.35,297.57ZM1347.1,352.809C1358.21,352.288 1368.52,348.634 1377.15,342.71L1360.32,320.483C1356.42,322.919 1351.92,324.489 1347.1,324.926L1347.1,352.809ZM1344.34,319.539C1357.99,319.539 1369.07,308.46 1369.07,294.814C1369.07,281.168 1357.99,270.089 1344.34,270.089C1330.69,270.089 1319.62,281.168 1319.62,294.814C1319.62,308.46 1330.69,319.539 1344.34,319.539Z"/>
        </g>
    </g>
</svg>
